<svg width="400" height="400" fill="none" xmlns="http://www.w3.org/2000/svg"><path d="M77.088 60.038C77.088 48.61 71.519 41.38 63 41.38c-8.519 0-14.087 7.23-14.087 18.658 0 11.386 5.527 18.617 14.087 18.617 8.52 0 14.088-7.23 14.088-18.617zM340.874 40.84h-8.602v13.63h7.854c5.527 0 8.852-2.618 8.852-6.94 0-4.197-2.992-6.69-8.104-6.69zM332.272 63.737v15.458h9.059c6.275 0 9.766-2.742 9.766-7.812 0-4.904-3.574-7.646-9.849-7.646h-8.976z" fill="#fff"/><path fill-rule="evenodd" clip-rule="evenodd" d="M400 0H0v120h400V0zM33.371 60.038c0-19.115 11.47-31.042 29.63-31.042 18.16 0 29.587 11.927 29.587 31.042 0 19.116-11.428 31-29.588 31-18.201 0-29.629-11.884-29.629-31zm118.14 8.605V91H136.26V31.035h40.808v12.3h-25.557v13.63h23.23v11.678h-23.23zM244.011 90V67.643h23.23V55.966h-23.23v-13.63h25.557V30.034H228.76V90h15.251zm122.586-17.287c0 10.513-8.103 17.287-20.944 17.287h-28.632V30.035h27.884c11.802 0 18.908 5.693 18.908 14.96 0 6.732-5.07 12.093-11.719 13.007v.332c8.104.374 14.503 6.4 14.503 14.379z" fill="#fff"/><path d="M62.834 182.751h-.332l-6.69 23.105h13.671l-6.649-23.105z" fill="#fff"/><path fill-rule="evenodd" clip-rule="evenodd" d="M400 140H0v120h400V140zM92.463 230H76.257l-3.782-13.173H52.861L49.038 230H33.495l20.154-59.965H72.31L92.463 230zm91.337-22.606c-.707 14.253-11.76 23.645-27.219 23.645-17.952 0-29.131-11.428-29.131-31.042 0-19.573 11.262-31.001 29.131-31.001 15.168 0 26.679 9.766 27.136 23.936h-14.669c-.749-7.064-5.777-11.719-12.467-11.719-8.311 0-13.589 7.106-13.589 18.742 0 11.76 5.236 18.866 13.63 18.866 6.691 0 11.553-4.404 12.509-11.427H183.8zM239.897 230v-16.955l5.111-6.483L260.301 230h17.91l-22.107-33.328 20.902-26.637h-16.373l-20.404 26.346h-.332v-26.346h-15.251V230h15.251zm100.52 1.039c-14.96 0-24.85-6.898-25.058-18.7h14.171c.706 4.28 5.319 6.773 11.178 6.773 5.943 0 9.807-2.659 9.807-6.316 0-3.325-2.576-5.028-9.682-6.4l-6.151-1.163c-11.968-2.244-18.159-8.104-18.159-17.246 0-11.553 10.015-18.991 23.811-18.991 15.085 0 23.978 7.397 24.144 18.825h-14.171c-.249-4.322-4.321-6.898-9.848-6.898-5.527 0-8.81 2.493-8.81 6.025 0 3.158 2.743 4.904 9.267 6.15l6.15 1.164c12.799 2.452 18.617 7.646 18.617 17.079 0 12.052-9.433 19.698-25.266 19.698z" fill="#fff"/><path d="M155.002 322.751h.332l6.649 23.105h-13.672l6.691-23.105z" fill="#fff"/><path fill-rule="evenodd" clip-rule="evenodd" d="M0 280h400v120H0V280zm70.605 90v-47.665h16.54v-12.3H38.855v12.3h16.54V370h15.209zm98.152 0h16.206l-20.154-59.965H146.15L125.996 370h15.542l3.823-13.173h19.614L168.757 370zm107.584-32.704v7.355c0 16.373-10.139 26.388-27.219 26.388-18.492 0-29.629-11.428-29.629-31.125 0-19.449 11.137-30.918 29.255-30.918 14.545 0 25.432 8.602 26.97 20.819h-15.085c-1.496-5.319-5.984-8.56-11.843-8.56-8.644 0-13.755 6.774-13.755 18.451 0 11.885 5.651 19.074 14.42 19.074 6.898 0 11.718-4.073 12.134-10.098l.042-.914H250.66v-10.472h25.681zm84.937 20.403H335.43v-12.217h24.311v-11.22H335.43v-11.927h25.848v-12.3h-41.099V370h41.099v-12.301z" fill="#fff"/></svg>